<svg width="24" height="24" viewBox="0 0 24 24" fill="none" xmlns="http://www.w3.org/2000/svg">
<path d="M20.2323 10.526C19.6473 7.405 19.3543 5.844 18.2433 4.922C17.1333 4 15.5453 4 12.3703 4H11.6493C8.47326 4 6.88626 4 5.77526 4.922C4.66426 5.844 4.37126 7.405 3.78526 10.526C2.96326 14.915 2.55126 17.109 3.75126 18.555C4.95126 20.001 7.18226 20 11.6483 20H12.3693C16.8343 20 19.0673 20 20.2673 18.555C20.9633 17.715 21.1173 16.625 20.9623 15" stroke="black" stroke-width="1.5" stroke-linecap="round"/>
<path d="M9.16992 8C9.37652 8.58553 9.75966 9.09257 10.2665 9.45121C10.7734 9.80986 11.379 10.0025 11.9999 10.0025C12.6208 10.0025 13.2265 9.80986 13.7333 9.45121C14.2402 9.09257 14.6233 8.58553 14.8299 8" stroke="black" stroke-width="1.5" stroke-linecap="round"/>
</svg>
